<?xml version="1.0" encoding="utf-8"?>
<!-- Generator: Adobe Illustrator 26.1.0, SVG Export Plug-In . SVG Version: 6.00 Build 0)  -->
<svg version="1.1" id="レイヤー_1" xmlns="http://www.w3.org/2000/svg" xmlns:xlink="http://www.w3.org/1999/xlink" x="0px"
	 y="0px" viewBox="0 0 425.4 105.3" style="enable-background:new 0 0 425.4 105.3;" xml:space="preserve">
<style type="text/css">
	.st0{fill:#009FE8;}
	.st1{fill:#231815;}
</style>
<circle class="st0" cx="159.8" cy="14.2" r="14.2"/>
<path class="st1" d="M353.9,39.4v61.9c0,1.4,1.1,2.6,2.5,2.6H368c1.4,0,2.5-1.2,2.5-2.6V41.9c0-1-0.3-2.3,0.7-2.5
	c1.1-0.2,1.5,1.1,2,2.4c0.8,1.9,17.2,45.8,18.4,48.9c3.8,9.9,10.7,14.1,18.1,14.1c7.8,0,15.7-5.5,15.7-19.8V26.7
	c0-1.4-1.1-2.6-2.5-2.6h-12c-1.4,0-2.5,1.2-2.5,2.6v57.7c0,2.1,0.2,3.4-0.8,3.5s-1.6-2.1-2-3.1c-0.7-1.8-16.8-44.6-18.3-48.7
	c-1.4-4.1-5.4-13.9-17-13.9C360,22.2,353.9,29.7,353.9,39.4L353.9,39.4z M194.3,31v65.7c0,4.5,3.6,8.1,8.1,8.2H230
	c18.3,0,25.8-11.2,25.8-21.1c0-12.3-9.8-14-9.8-21.9s8.2-9.2,8.2-20.3c0-9.7-8.4-18.7-24.8-18.7h-27C197.9,22.9,194.3,26.6,194.3,31
	L194.3,31z M237.2,46.4c0,6.5-8.9,8.9-8.9,15.4c0,8.8,11.1,9.3,11.1,18.4c0,6.2-4.6,10.2-13.4,10.2h-14.6c-0.4,0-0.8-0.4-0.8-0.8
	V38.1c0-0.4,0.4-0.8,0.8-0.8H226C231.3,37.3,237.2,39.9,237.2,46.4L237.2,46.4z M0.6,85.6c0.1-1.3,1-1.8,1.8-1.4
	c12.1,6.4,31.9,6.9,34.1,0.4c2.7-7.8-6.6-10.1-16.2-14.1c-15-6.2-21.5-15.8-20.1-26c1.6-11.9,11.1-20.8,27.6-21.4
	c9-0.3,16.8,1.4,24.1,4.3c0.5,0.2,0.8,0.7,0.8,1.2v12c0,1-0.9,1.7-1.8,1.4c-4.9-1.7-12.1-4.3-18.8-4.1c-6.4,0.2-11.2,1.9-12.1,6.6
	c-0.8,4.4,4.1,9.4,17.1,13.7C52.5,63.3,58,73.6,57.3,83.7c-0.7,9.4-9.3,20.8-29.7,21.6c-9.5,0.4-21.4-2.3-26.7-5.1
	C0.4,100,0,99.5,0,99C0.1,96.9,0.4,87.3,0.6,85.6z M98.9,37.6h27.2c0.9,0,1.6-0.7,1.6-1.6V25.1c0-0.9-0.7-1.6-1.6-1.6l-5.8-0.1
	C114,23.1,106.5,23,102,23c-11.1,0-27.9,0-27.9,20.3v41.4C74.1,105,90.8,105,102,105c3.8,0,11.3,0,18.3-0.4l5.8-0.1
	c0.9,0,1.6-0.7,1.6-1.6v-11c0-0.9-0.7-1.6-1.6-1.6h-22.9c-11.6,0-11.6-1-11.6-10.3v-9.5h30.9c0.9,0,1.6-0.7,1.6-1.6v-11
	c0-0.9-0.7-1.6-1.6-1.6H91.6V44.6C91.6,38.9,92.8,37.6,98.9,37.6z M303.6,22c-13.5,0-20.5,8.8-23.1,20.7
	c-0.3,1.4-12.1,57.8-12.5,59.6c-0.2,0.7-0.1,1.3,0.2,1.6c0.3,0.3,0.7,0.5,1.4,0.5h13.8c1.3,0,2.2-1,2.6-3l9.5-49.8
	c1.1-5.9,1.4-12.5,7.9-12.5c5.5,0,6.3,6.2,7.6,12.7c0.4,2.3,8.6,46.6,9.3,50.1c0.3,1.7,1.3,2.6,2.5,2.6h15c0.6,0,1-0.1,1.3-0.4
	s0.3-0.9,0.1-1.7c-0.2-0.9-12.2-59.1-12.6-60.9C324.4,31.7,318.6,22,303.6,22L303.6,22z M169.7,38.6v65.3c0,0.5-0.4,1-1,1h-17.8
	c-0.5,0-1-0.4-1-1V38.6c0-0.5,0.4-1,1-1h17.8C169.3,37.7,169.7,38.1,169.7,38.6z"/>
</svg>